<svg fill="#349" id="Capa_1" xmlns="http://www.w3.org/2000/svg" width="533.333" height="533.333" viewBox="0 0 533.333 533.333"><path d="M266.667 433.276c-9.976 0-19.952-5.164-30.282-15.495-4.068-4.067-4.068-10.663 0-14.733 4.067-4.067 10.664-4.067 14.732 0 6.357 6.36 11.444 9.451 15.55 9.451 4.105 0 9.193-3.091 15.552-9.448 4.068-4.067 10.662-4.067 14.732 0 4.066 4.067 4.066 10.663 0 14.733-10.332 10.328-20.308 15.492-30.284 15.492zM0 273.692c0 25.984 2.222 49.543 6.667 70.668s10.695 39.448 18.75 54.965c8.055 15.518 18.241 29.116 30.555 40.804 12.315 11.685 25.694 21.312 40.139 28.884 14.444 7.571 30.972 13.696 49.583 18.367a385.758 385.758 0 0 0 56.805 9.815c19.26 1.87 40.464 2.805 63.611 2.805s44.397-.932 63.749-2.803c19.353-1.869 38.335-5.141 56.944-9.815 18.611-4.672 35.187-10.795 49.723-18.367 14.535-7.571 28.01-17.201 40.416-28.884 12.408-11.688 22.639-25.286 30.694-40.804 8.058-15.517 14.354-33.84 18.891-54.965 4.537-21.125 6.806-44.682 6.806-70.666 0-46.553-14.446-86.653-43.333-120.304 1.666-4.487 3.101-9.628 4.305-15.423 1.2-5.796 2.36-13.975 3.471-24.538 1.112-10.563.696-22.762-1.249-36.596-1.946-13.835-5.602-27.95-10.973-42.345l-4.167-.843c-2.777-.56-7.313-.374-13.608.562-6.295.934-13.658 2.616-22.083 5.047-8.425 2.429-19.306 7.244-32.64 14.441-13.333 7.197-27.407 16.312-42.223 27.342-25.186-7.666-59.906-15.685-104.167-15.685-44.258 0-79.074 8.019-104.443 15.684-14.815-11.031-28.935-20.098-42.361-27.202-13.427-7.105-24.167-11.965-32.223-14.582-8.056-2.617-15.509-4.3-22.361-5.047-6.852-.748-11.25-.982-13.195-.701-1.944.28-3.379.607-4.305.981-5.372 14.396-9.076 28.511-11.113 42.346-2.036 13.833-2.5 25.985-1.388 36.454 1.111 10.47 2.314 18.697 3.611 24.678 1.297 5.982 2.778 11.124 4.445 15.424C14.445 186.854 0 226.954 0 273.692zm71.112 59.33c0-30.221 11.11-57.625 33.333-82.218 6.667-7.503 14.398-13.183 23.195-17.038 8.797-3.855 18.796-6.044 30-6.565 11.204-.521 21.897-.417 32.083.312 10.186.73 22.778 1.72 37.778 2.97 14.999 1.252 27.962 1.876 38.888 1.876 10.925 0 23.89-.625 38.888-1.876 15.003-1.25 27.595-2.239 37.78-2.97 10.188-.729 20.88-.833 32.084-.312 11.204.521 21.252 2.71 30.142 6.565 8.887 3.854 16.666 9.534 23.331 17.038 22.222 24.593 33.334 51.997 33.334 82.218 0 17.714-1.85 33.501-5.557 47.361-3.702 13.859-8.38 25.477-14.027 34.854-5.648 9.379-13.567 17.302-23.749 23.763-10.187 6.459-20.048 11.463-29.584 15.003-9.535 3.542-21.853 6.306-36.944 8.284-15.095 1.978-28.611 3.178-40.56 3.595-11.945.417-26.988.624-45.138.624-18.147 0-33.147-.207-45-.624-11.853-.417-25.324-1.617-40.417-3.595-15.092-1.979-27.407-4.741-36.944-8.284-9.537-3.541-19.398-8.544-29.583-15.003-10.186-6.461-18.103-14.384-23.75-23.763-5.648-9.378-10.325-20.995-14.028-34.854s-5.555-29.647-5.555-47.361zm62.221-16.354c0 27.614 14.924 50 33.333 50s33.333-22.386 33.333-50-14.924-50-33.333-50-33.333 22.386-33.333 50zm200 0c0 27.614 14.924 50 33.333 50s33.333-22.386 33.333-50-14.924-50-33.333-50-33.333 22.386-33.333 50z"/></svg>