
<svg aria-hidden="true" style="position:absolute; width:0; height:0" xmlns="http://www.w3.org/2000/svg" overflow="hidden"><svg id="3d-outlined-shape" viewBox="0 0 24 32"><path d="M16.878.415a2.501 2.501 0 0 0-2.809.034L1.485 9.214a2.5 2.5 0 0 0-1.071 2.052v9.444c0 .84.421 1.623 1.122 2.086l12.79 8.455a2.5 2.5 0 0 0 2.758 0l13.044-8.618a2.501 2.501 0 0 0 1.122-2.086v-9.279a2.5 2.5 0 0 0-1.121-2.085L16.878.415zm9.743 10.23L21.8 13.882l-4.521-3.288-.029-6.467 9.371 6.518zM13.979 4.133v6.329l-4.633 3.24-4.621-3.099 9.254-6.47zM3.458 13.722l2.991 2.004-2.991 2.093v-4.097zm10.6 13.493l-9.331-6.258 4.661-3.258 4.67 3.133v6.383zm-1.772-11.541l3.021-2.113 3.519 2.313-3.119 2.095-3.421-2.295zm5.068 11.541V20.83l4.463-2.991 4.805 3.159-9.268 6.217zm10.6-9.288l-3.168-2.082 3.168-2.125v4.207z"/></svg><svg  viewBox="0 0 24 32" id="facebook-logo"><path d="M271.521 154.17v-40.541c0-6.086.28-10.8.849-14.13.567-3.335 1.857-6.615 3.859-9.853 1.999-3.236 5.236-5.47 9.706-6.708 4.476-1.24 10.424-1.858 17.85-1.858h40.539V0h-64.809c-37.5 0-64.433 8.897-80.803 26.691-16.368 17.798-24.551 44.014-24.551 78.658v48.82h-48.542v81.086h48.539v235.256h97.362V235.256h64.805l8.566-81.086h-73.37z"/></svg><svg id="github-logo"><path d="M65.709 10.5c1.17 2.657 1.928 7.07.797 10.301 4.625 3.949 6.215 13.549 3.982 21.394 6.592.503 14.444-.242 19.512 1.781-4.738-.609-11.209-1.804-17.32-1.388-1.158.079-2.873-.044-2.789 1.585 7.074.555 14.104 1.16 19.912 2.973-5.761-.941-12.754-2.375-19.912-2.574-2.957 5.835-8.908 8.703-17.123 9.307.883 1.922 2.574 2.653 2.987 5.744.616 4.618-.964 11.381.595 14.459.748 1.475 1.967 1.514 2.789 2.775-2.012 2.381-7-.268-7.568-2.775-.973-4.295 1.482-10.953-1.192-13.865.188 4.685-1.108 11.264.199 15.449.515 1.646 2.002 2.281 1.593 3.766-9.352.949-5.443-12.104-6.972-19.81-1.411.101-.791 2.113-.796 2.972-.04 7.524 1.54 17.844-6.57 16.838-.237-1.582 1.088-2.119 1.593-3.563 1.479-4.233-.277-10.542.401-15.651-3.095 2.334.325 10.48-1.593 14.657-1.105 2.404-4.666 3.45-7.367 2.377.352-1.79 2.2-1.501 2.984-3.169 1.096-2.324.008-5.674.399-9.111-5.729 1.144-10.173-.166-12.348-3.764-.973-1.615-1.214-3.52-2.39-4.951-1.17-1.432-3.04-1.625-3.582-3.563 7.095-1.708 7.367 7.302 13.739 7.524 1.954.071 2.97-.563 4.778-.988.506-2.272 1.589-3.967 3.186-5.153-7.929-1.085-14.477-3.554-17.522-9.504-7.208.354-13.804 1.317-19.913 2.771 5.545-2.014 12.384-2.736 19.715-2.973-.432-2.596-4.219-1.882-6.57-1.782-4.37.192-9.87.735-13.343 1.387 5.034-1.795 12.098-1.571 18.918-1.585-2.086-6.54-1.363-16.929 3.186-20.798-1.289-3.249-.889-8.563.796-11.093 5.079.228 8.159 2.443 11.35 4.557 3.957-1.125 8.118-1.685 13.54-1.387 2.28.126 4.651 1.151 6.369.989 1.685-.158 3.542-2.049 5.178-2.771 2.131-.941 3.934-1.3 6.372-1.388z"/></svg><svg width="97" height="97" id="instagram-social-network-logo-of-photo-camera" y="422"><path d="M12.501 0h72.393c6.875 0 12.5 5.09 12.5 12.5v72.395c0 7.41-5.625 12.5-12.5 12.5H12.501C5.624 97.395 0 92.305 0 84.895V12.5C0 5.09 5.624 0 12.501 0zm58.447 10.821a4.395 4.395 0 0 0-4.383 4.385v10.495a4.396 4.396 0 0 0 4.383 4.385h11.008a4.398 4.398 0 0 0 4.385-4.385V15.206a4.397 4.397 0 0 0-4.385-4.385H70.948zm15.439 30.367h-8.572a28.486 28.486 0 0 1 1.25 8.355c0 16.2-13.556 29.332-30.275 29.332-16.718 0-30.272-13.132-30.272-29.332 0-2.904.438-5.708 1.25-8.355h-8.945v41.141a3.884 3.884 0 0 0 3.872 3.872h67.822a3.883 3.883 0 0 0 3.872-3.872V41.188h-.002zM48.789 29.533c-10.802 0-19.56 8.485-19.56 18.953s8.758 18.953 19.56 18.953c10.803 0 19.562-8.485 19.562-18.953s-8.758-18.953-19.562-18.953z"/></svg><svg viewBox="0 0 511.977 511.977" width="32" height="32" id="pinterest" y="519"><path d="M262.948 0C122.628 0 48.004 89.92 48.004 187.968c0 45.472 25.408 102.176 66.08 120.16 6.176 2.784 9.536 1.6 10.912-4.128 1.216-4.352 6.56-25.312 9.152-35.2.8-3.168.384-5.92-2.176-8.896-13.504-15.616-24.224-44.064-24.224-70.752 0-68.384 54.368-134.784 146.88-134.784 80 0 135.968 51.968 135.968 126.304 0 84-44.448 142.112-102.208 142.112-31.968 0-55.776-25.088-48.224-56.128 9.12-36.96 27.008-76.704 27.008-103.36 0-23.904-13.504-43.68-41.088-43.68-32.544 0-58.944 32.224-58.944 75.488 0 27.488 9.728 46.048 9.728 46.048S144.676 371.2 138.692 395.488c-10.112 41.12 1.376 107.712 2.368 113.44.608 3.168 4.16 4.16 6.144 1.568 3.168-4.16 42.08-59.68 52.992-99.808 3.968-14.624 20.256-73.92 20.256-73.92 10.72 19.36 41.664 35.584 74.624 35.584 98.048 0 168.896-86.176 168.896-193.12C463.62 76.704 375.876 0 262.948 0z"/></svg></svg>
